<mxfile host="drawio-plugin" modified="2023-12-25T10:09:00.102Z" agent="5.0 (X11; Linux x86_64) AppleWebKit/537.36 (KHTML, like Gecko) Chrome/89.0.4389.114 Safari/537.36" etag="y25T5omW00424ksXNTuI" version="20.5.3" type="embed"><diagram name="Page-1" id="zyzSJzDsGnbCpFEmjgsE"><mxGraphModel dx="992" dy="763" grid="1" gridSize="10" guides="1" tooltips="1" connect="1" arrows="1" fold="1" page="1" pageScale="1" pageWidth="827" pageHeight="1169" math="0" shadow="0"><root><mxCell id="0"/><mxCell id="1" parent="0"/><mxCell id="X73p-uAo1vWcxkL4IxTX-2" value="Авторизация" style="text;html=1;strokeColor=none;fillColor=none;align=left;verticalAlign=middle;whiteSpace=wrap;rounded=0;fontSize=16;spacing=10;" parent="1" vertex="1"><mxGeometry width="320" height="40" as="geometry"/></mxCell><mxCell id="k5MwrPqOkTcOePIkKlvr-1" value="Ввод атриубутов пользователя: &lt;br&gt;&lt;ul&gt;&lt;li style=&quot;&quot;&gt;Имя&lt;/li&gt;&lt;li style=&quot;&quot;&gt;логин (email, телефон)&lt;/li&gt;&lt;li style=&quot;&quot;&gt;пароль&lt;/li&gt;&lt;/ul&gt;" style="rounded=1;whiteSpace=wrap;html=1;verticalAlign=top;align=left;spacing=10;" parent="1" vertex="1"><mxGeometry x="40" y="200" width="200" height="120" as="geometry"/></mxCell><mxCell id="k5MwrPqOkTcOePIkKlvr-2" value="Actor" style="shape=umlActor;verticalLabelPosition=bottom;verticalAlign=top;html=1;outlineConnect=0;" parent="1" vertex="1"><mxGeometry x="20" y="50" width="30" height="60" as="geometry"/></mxCell><mxCell id="2" value="Нет cookies&lt;br&gt;авторизации" style="endArrow=classic;html=1;rounded=0;" edge="1" parent="1" source="3" target="k5MwrPqOkTcOePIkKlvr-1"><mxGeometry x="-0.0069" y="-3" width="50" height="50" relative="1" as="geometry"><mxPoint x="100" y="120" as="sourcePoint"/><mxPoint x="200" y="70" as="targetPoint"/><Array as="points"><mxPoint x="200" y="120"/></Array><mxPoint as="offset"/></mxGeometry></mxCell><mxCell id="3" value="Есть cokies&lt;br&gt;авторизации?" style="rhombus;whiteSpace=wrap;html=1;" vertex="1" parent="1"><mxGeometry x="280" y="40" width="120" height="80" as="geometry"/></mxCell><mxCell id="4" value="Вход" style="endArrow=classic;html=1;rounded=0;entryX=0;entryY=0.5;entryDx=0;entryDy=0;" edge="1" parent="1" source="k5MwrPqOkTcOePIkKlvr-2" target="3"><mxGeometry width="50" height="50" relative="1" as="geometry"><mxPoint x="120" y="350" as="sourcePoint"/><mxPoint x="170" y="300" as="targetPoint"/></mxGeometry></mxCell><mxCell id="5" value="Есть одна &lt;br&gt;cookie авторизации" style="endArrow=classic;html=1;rounded=0;" edge="1" parent="1" source="3" target="7"><mxGeometry width="50" height="50" relative="1" as="geometry"><mxPoint x="340" y="290" as="sourcePoint"/><mxPoint x="390" y="240" as="targetPoint"/></mxGeometry></mxCell><mxCell id="6" value="Есть несколько&lt;br&gt;cookie авторизации" style="endArrow=classic;html=1;rounded=0;" edge="1" parent="1" source="3" target="27"><mxGeometry width="50" height="50" relative="1" as="geometry"><mxPoint x="490" y="150" as="sourcePoint"/><mxPoint x="540" y="100" as="targetPoint"/><Array as="points"><mxPoint x="520" y="120"/></Array></mxGeometry></mxCell><mxCell id="7" value="Показ атрибутов пользователя из cookie и кнопки &quot;Вход&quot;&lt;br&gt;&lt;hr&gt;Меню: Другой пользователь" style="rounded=1;whiteSpace=wrap;html=1;verticalAlign=top;align=left;spacing=10;" vertex="1" parent="1"><mxGeometry x="360" y="200" width="160" height="120" as="geometry"/></mxCell><mxCell id="8" value="Другой &lt;br&gt;пользователь" style="endArrow=classic;html=1;rounded=0;" edge="1" parent="1" source="7" target="k5MwrPqOkTcOePIkKlvr-1"><mxGeometry width="50" height="50" relative="1" as="geometry"><mxPoint x="320" y="500" as="sourcePoint"/><mxPoint x="240" y="370" as="targetPoint"/></mxGeometry></mxCell><mxCell id="9" value="&lt;span style=&quot;font-size: 12px; text-align: left; background-color: rgb(248, 249, 250);&quot;&gt;Вход&lt;/span&gt;" style="endArrow=classic;html=1;rounded=0;" edge="1" parent="1" source="7" target="25"><mxGeometry x="-0.4872" width="50" height="50" relative="1" as="geometry"><mxPoint x="400" y="440" as="sourcePoint"/><mxPoint x="340" y="420" as="targetPoint"/><Array as="points"><mxPoint x="440" y="400"/></Array><mxPoint as="offset"/></mxGeometry></mxCell><mxCell id="10" value="&lt;span style=&quot;font-size: 12px; background-color: rgb(248, 249, 250);&quot;&gt;Регистрация&lt;/span&gt;" style="endArrow=classic;html=1;rounded=0;" edge="1" parent="1" source="k5MwrPqOkTcOePIkKlvr-1" target="25"><mxGeometry width="50" height="50" relative="1" as="geometry"><mxPoint x="150" y="430" as="sourcePoint"/><mxPoint x="140" y="360" as="targetPoint"/></mxGeometry></mxCell><mxCell id="11" value="Такой&lt;br&gt;пользователь уже есть в БД?" style="rhombus;whiteSpace=wrap;html=1;" vertex="1" parent="1"><mxGeometry x="80" y="520" width="120" height="80" as="geometry"/></mxCell><mxCell id="12" value="Такого &lt;br&gt;пользователя нет" style="endArrow=classic;html=1;rounded=0;" edge="1" parent="1" source="11" target="14"><mxGeometry width="50" height="50" relative="1" as="geometry"><mxPoint x="100" y="660" as="sourcePoint"/><mxPoint x="80" y="610" as="targetPoint"/></mxGeometry></mxCell><mxCell id="14" value="Добавление пользователя в БД" style="shape=process;whiteSpace=wrap;html=1;backgroundOutline=1;size=0.07142857142857142;" vertex="1" parent="1"><mxGeometry x="70" y="680" width="140" height="40" as="geometry"/></mxCell><mxCell id="15" value="Авторизация" style="shape=process;whiteSpace=wrap;html=1;backgroundOutline=1;size=0.07142857142857142;" vertex="1" parent="1"><mxGeometry x="270" y="680" width="140" height="40" as="geometry"/></mxCell><mxCell id="16" value="" style="endArrow=classic;html=1;rounded=0;" edge="1" parent="1" source="11" target="15"><mxGeometry width="50" height="50" relative="1" as="geometry"><mxPoint x="280" y="570" as="sourcePoint"/><mxPoint x="330" y="520" as="targetPoint"/></mxGeometry></mxCell><mxCell id="17" value="" style="endArrow=classic;html=1;rounded=0;" edge="1" parent="1" source="14" target="18"><mxGeometry width="50" height="50" relative="1" as="geometry"><mxPoint x="280" y="760" as="sourcePoint"/><mxPoint x="140" y="740" as="targetPoint"/></mxGeometry></mxCell><mxCell id="18" value="Главное окно игры" style="rounded=1;whiteSpace=wrap;html=1;" vertex="1" parent="1"><mxGeometry x="80" y="760" width="120" height="80" as="geometry"/></mxCell><mxCell id="19" value="Успешная авторизация?" style="rhombus;whiteSpace=wrap;html=1;" vertex="1" parent="1"><mxGeometry x="280" y="760" width="120" height="80" as="geometry"/></mxCell><mxCell id="20" value="" style="endArrow=classic;html=1;rounded=0;" edge="1" parent="1" source="15" target="19"><mxGeometry width="50" height="50" relative="1" as="geometry"><mxPoint x="330" y="550" as="sourcePoint"/><mxPoint x="380" y="500" as="targetPoint"/></mxGeometry></mxCell><mxCell id="21" value="Да" style="endArrow=classic;html=1;rounded=0;" edge="1" parent="1" source="19" target="18"><mxGeometry width="50" height="50" relative="1" as="geometry"><mxPoint x="210" y="770" as="sourcePoint"/><mxPoint x="260" y="720" as="targetPoint"/></mxGeometry></mxCell><mxCell id="22" value="Нет" style="endArrow=classic;html=1;rounded=0;" edge="1" parent="1" source="19" target="23"><mxGeometry width="50" height="50" relative="1" as="geometry"><mxPoint x="650" y="700" as="sourcePoint"/><mxPoint x="700" y="650" as="targetPoint"/></mxGeometry></mxCell><mxCell id="23" value="Сообщение:&lt;br&gt;такой пользователь уже есть, укажите правильный пароль" style="rounded=1;whiteSpace=wrap;html=1;" vertex="1" parent="1"><mxGeometry x="480" y="760" width="160" height="80" as="geometry"/></mxCell><mxCell id="24" value="" style="endArrow=classic;html=1;rounded=0;" edge="1" parent="1" source="23" target="k5MwrPqOkTcOePIkKlvr-1"><mxGeometry width="50" height="50" relative="1" as="geometry"><mxPoint x="680" y="510" as="sourcePoint"/><mxPoint x="730" y="460" as="targetPoint"/><Array as="points"><mxPoint x="560" y="880"/><mxPoint x="40" y="880"/><mxPoint x="40" y="360"/></Array></mxGeometry></mxCell><mxCell id="25" value="Поиск пользователя по указанным атрибутам" style="shape=process;whiteSpace=wrap;html=1;backgroundOutline=1;size=0.07142857142857142;" vertex="1" parent="1"><mxGeometry x="70" y="400" width="140" height="80" as="geometry"/></mxCell><mxCell id="26" value="" style="endArrow=classic;html=1;rounded=0;" edge="1" parent="1" source="25" target="11"><mxGeometry width="50" height="50" relative="1" as="geometry"><mxPoint x="360" y="490" as="sourcePoint"/><mxPoint x="410" y="440" as="targetPoint"/></mxGeometry></mxCell><mxCell id="27" value="Для каждого пользователя: &lt;br&gt;Показ атрибутов пользователя из cookie и кнопки &quot;&amp;lt;Вход как имя пользователя&amp;gt;&quot;&lt;br&gt;&lt;hr&gt;Меню: Другой пользователь" style="rounded=1;whiteSpace=wrap;html=1;verticalAlign=top;align=left;spacing=10;" vertex="1" parent="1"><mxGeometry x="600" y="200" width="160" height="160" as="geometry"/></mxCell><mxCell id="28" value="&lt;span style=&quot;font-size: 12px; text-align: left; background-color: rgb(248, 249, 250);&quot;&gt;Вход&lt;/span&gt;" style="endArrow=classic;html=1;rounded=0;" edge="1" parent="1" source="27" target="25"><mxGeometry x="-0.6863" width="50" height="50" relative="1" as="geometry"><mxPoint x="360" y="308" as="sourcePoint"/><mxPoint x="206.66666666666652" y="400" as="targetPoint"/><Array as="points"><mxPoint x="640" y="440"/></Array><mxPoint as="offset"/></mxGeometry></mxCell><mxCell id="29" value="Другой &lt;br&gt;пользователь" style="endArrow=classic;html=1;rounded=0;" edge="1" parent="1" source="27" target="k5MwrPqOkTcOePIkKlvr-1"><mxGeometry x="-0.5021" width="50" height="50" relative="1" as="geometry"><mxPoint x="360" y="260" as="sourcePoint"/><mxPoint x="240" y="260" as="targetPoint"/><Array as="points"><mxPoint x="500" y="360"/><mxPoint x="280" y="360"/></Array><mxPoint as="offset"/></mxGeometry></mxCell><mxCell id="30" value="Запомнить куки" style="shape=process;whiteSpace=wrap;html=1;backgroundOutline=1;" vertex="1" parent="1"><mxGeometry x="450" y="510" width="120" height="60" as="geometry"/></mxCell></root></mxGraphModel></diagram></mxfile>